<svg id="LOGO" xmlns="http://www.w3.org/2000/svg" viewBox="0 0 572 578"><defs><style>.cls-1{fill:#4c0080;}.cls-2{fill:#bdb3d7;}</style></defs><path class="cls-1" d="M101.9,445.84h0a.49.49,0,0,0,.34-.14.48.48,0,0,0,.14-.34V399.67a21.43,21.43,0,0,0-.7-5.5,15.68,15.68,0,0,0-2.17-4.85,11.68,11.68,0,0,0-3.68-3.53,10.36,10.36,0,0,0-5.06-1.47c-29.61-1.34-59.65-3-89.29-4.81a.47.47,0,0,0-.36.13A.53.53,0,0,0,1,380v16.85a.49.49,0,0,0,.46.49c27.29,1.42,54.92,2.67,82.13,3.73.88,0,2,.35,2,2.67v24.78q-15.73-.39-31.46-.82v-17a.48.48,0,0,0-.47-.48c-6.37-.24-9.55-.36-15.92-.62a.5.5,0,0,0-.35.14.45.45,0,0,0-.15.34V427.2c-11.85-.35-24-.74-36.12-1.16a.49.49,0,0,0-.35.13.47.47,0,0,0-.15.35v16.86a.49.49,0,0,0,.47.49C34.59,444.64,68.5,445.31,101.9,445.84Z"/><path class="cls-1" d="M97.33,493.36a21.76,21.76,0,0,0,3.79-7.32,29.91,29.91,0,0,0,1.27-8.72,29,29,0,0,0-1.27-8.54,22.92,22.92,0,0,0-3.78-7.32,18.42,18.42,0,0,0-6.19-5.09,19.27,19.27,0,0,0-8.58-1.95c-20.65-.26-41.58-.56-62.22-.88a17.7,17.7,0,0,0-8.42,1.78,17.55,17.55,0,0,0-6.08,5.19,24.3,24.3,0,0,0-3.71,7.63,31.37,31.37,0,0,0-1.27,9,32.7,32.7,0,0,0,1.27,9.19,23.34,23.34,0,0,0,3.71,7.64,18.46,18.46,0,0,0,6.07,5.21,16.94,16.94,0,0,0,8.17,1.9h.25c20.51-.23,41.44-.45,62.23-.64a18.62,18.62,0,0,0,8.58-2A19.34,19.34,0,0,0,97.33,493.36Zm-12-16.07A7.07,7.07,0,0,1,84,481.72a5.05,5.05,0,0,1-4.28,1.75q-28.22,0-56.43.09h0c-2,0-3.45-.59-4.31-1.79a7.76,7.76,0,0,1-1.33-4.62A6.9,6.9,0,0,1,19,472.83c.84-1.09,2.27-1.65,4.27-1.65h.06q28.22.18,56.43.31A5.3,5.3,0,0,1,84,473.13,6.37,6.37,0,0,1,85.38,477.29Z"/><path class="cls-1" d="M133.92,500H134c26.58-.17,53.43-.3,79.8-.39a.48.48,0,0,0,.48-.48V429.3l9.65.08a.5.5,0,0,0,.34-.14.48.48,0,0,0,.14-.34V413.23a.47.47,0,0,0-.47-.48l-9.66-.11V388.48a.48.48,0,0,0-.47-.48c-6.33-.1-9.5-.16-15.83-.28a.52.52,0,0,0-.35.14.48.48,0,0,0-.14.34v94.64l-56.33,0h0a2,2,0,0,1-1.6-.59,2.9,2.9,0,0,1-.53-1.92V458.76a.5.5,0,0,0-.48-.49l-15.71-.13a.51.51,0,0,0-.34.14.5.5,0,0,0-.14.35v26.71a20.71,20.71,0,0,0,.7,5.42,15.44,15.44,0,0,0,2.11,4.72,10.09,10.09,0,0,0,8.74,4.53Z"/><path class="cls-1" d="M161.79,435.73a44.52,44.52,0,0,0,9.61-17.07,73.14,73.14,0,0,0,3-21.86v-9.14a.48.48,0,0,0-.47-.48c-18.53-.49-37.25-1.08-55.66-1.74a.53.53,0,0,0-.35.13.51.51,0,0,0-.15.35v15.74a.48.48,0,0,0,.47.48c13.05.41,26.28.78,39.34,1.09A40.53,40.53,0,0,1,155,414.88a26.76,26.76,0,0,1-6.94,9.73,32.82,32.82,0,0,1-12.23,6.95,53.67,53.67,0,0,1-17.48,2.28.45.45,0,0,0-.35.14.49.49,0,0,0-.15.34v15.74a.49.49,0,0,0,.48.48h1.29c9.46,0,17.75-1.29,24.66-3.84C151.69,444,157.59,440.27,161.79,435.73Z"/><path class="cls-1" d="M241.78,441.33a23.79,23.79,0,0,0,7.38,6.45,18.52,18.52,0,0,0,9,2.36c10.25,0,15.38,0,25.63,0a18.53,18.53,0,0,0,9.05-2.34,23.78,23.78,0,0,0,7.38-6.41,32.37,32.37,0,0,0,5-9.74,42.63,42.63,0,0,0,0-24.78,32.2,32.2,0,0,0-5-9.71,22.88,22.88,0,0,0-7.38-6.33,19,19,0,0,0-9.05-2.27c-10.17,0-15.19,0-25.62-.09h-.13a19.06,19.06,0,0,0-8.92,2.21,22.82,22.82,0,0,0-7.39,6.3,31.11,31.11,0,0,0-4.92,9.71,44,44,0,0,0,0,24.84A31.56,31.56,0,0,0,241.78,441.33Zm19.28-7.63c-2.52,0-4.62-1.22-6.44-3.7s-2.76-6.09-2.76-10.71.93-8.13,2.76-10.69,3.9-3.76,6.4-3.76h0c7.88,0,11.82.05,19.7.05,2.52,0,4.65,1.25,6.5,3.8s2.81,6.16,2.81,10.69-.94,8.2-2.8,10.68-4,3.68-6.51,3.68h0Z"/><path class="cls-1" d="M336.44,499.56a.48.48,0,0,0,.34-.14.49.49,0,0,0,.15-.34V388.78a.5.5,0,0,0-.15-.34.51.51,0,0,0-.34-.14c-6.33.07-9.5.1-15.83.15a.49.49,0,0,0-.48.48v77.13c-27.82,0-56.28,0-84.57,0h0a.52.52,0,0,0-.35.14.49.49,0,0,0-.14.34v15.78a.48.48,0,0,0,.14.34.52.52,0,0,0,.35.14h84.57v16.28a.49.49,0,0,0,.49.49l15.82,0Z"/><path class="cls-1" d="M448.69,385.77a.57.57,0,0,0-.35-.14c-6.33.24-9.49.34-15.82.55a.48.48,0,0,0-.47.48V499.5a.48.48,0,0,0,.48.48l15.82.11h0a.45.45,0,0,0,.34-.15.49.49,0,0,0,.15-.34V438.29l9.65-.16a.49.49,0,0,0,.48-.48v-16a.49.49,0,0,0-.15-.34.52.52,0,0,0-.35-.14l-9.63.23V386.12A.51.51,0,0,0,448.69,385.77Z"/><path class="cls-1" d="M352.84,472.38a.47.47,0,0,0-.48.48v15.81a.48.48,0,0,0,.48.48q34.21,0,68.42.13h0a.48.48,0,0,0,.34-.14.5.5,0,0,0,.15-.34V472.72a.49.49,0,0,0-.15-.34.48.48,0,0,0-.34-.14h0l-13.17,0V403.89l9.77-.23a.48.48,0,0,0,.47-.48V387.12a.45.45,0,0,0-.15-.34.48.48,0,0,0-.35-.14c-21.51.61-43.38,1.09-65,1.45a.48.48,0,0,0-.47.48v15.81a.48.48,0,0,0,.14.34.4.4,0,0,0,.35.14l10-.13v67.63Zm26.78-.05V404.46l11.68-.21v68.06Z"/><path class="cls-1" d="M571.21,379.62a.53.53,0,0,0-.36-.13c-6.32.41-9.48.6-15.81,1a.49.49,0,0,0-.45.49V500.61a.48.48,0,0,0,.48.48l15.8.19h0a.48.48,0,0,0,.48-.48V380A.47.47,0,0,0,571.21,379.62Z"/><path class="cls-1" d="M474.76,484.8a11.13,11.13,0,0,0,3.68,3.39,10.22,10.22,0,0,0,5.08,1.28q26.34.09,52.67.21h0a.48.48,0,0,0,.34-.14.49.49,0,0,0,.15-.34V472.28a.49.49,0,0,0-.15-.34c-.09-.09-.19-.19-.34-.14l-45.5.2a2,2,0,0,1-1.41-.47,2.91,2.91,0,0,1-.61-2.1V444.48c16.12-.29,30.9-.57,45.14-.88a.48.48,0,0,0,.48-.48V426.76a.49.49,0,0,0-.15-.34.55.55,0,0,0-.35-.14c-14.24.44-29,.85-45.12,1.25V401.46c16.6-.63,31.78-1.26,46.41-1.95a.48.48,0,0,0,.46-.48V382.12a.51.51,0,0,0-.15-.35.44.44,0,0,0-.36-.13c-20.8,1.13-41.89,2.16-62.68,3.06a.48.48,0,0,0-.46.48v89.36a21.52,21.52,0,0,0,.69,5.47A15.16,15.16,0,0,0,474.76,484.8Z"/><path class="cls-1" d="M39.28,524.14c-12.27.32-24.8.67-37.23,1a.5.5,0,0,0-.48.49v9.65a.49.49,0,0,0,.15.36.46.46,0,0,0,.36.14l13.16-.47v37.08a.48.48,0,0,0,.15.36.48.48,0,0,0,.34.13h0l9.88-.55a.49.49,0,0,0,.47-.49V535l13.19-.43a.49.49,0,0,0,.48-.49v-9.44a.47.47,0,0,0-.15-.35A.39.39,0,0,0,39.28,524.14Z"/><path class="cls-2" d="M70.36,544.62a11.56,11.56,0,0,0-2.46-4.13A10.65,10.65,0,0,0,64,537.87a13.11,13.11,0,0,0-5.23-.8,11.73,11.73,0,0,0-6.86,2.13,16.57,16.57,0,0,0-3.31,3.33V525.35a.5.5,0,0,0-.14-.35.37.37,0,0,0-.36-.14l-4.65.12a.49.49,0,0,0-.48.49v45.46a.53.53,0,0,0,.17.36.54.54,0,0,0,.36.14h0l4.61-.23a.49.49,0,0,0,.46-.49V552.35a11.45,11.45,0,0,1,.67-4,9.08,9.08,0,0,1,1.86-3.09,8.37,8.37,0,0,1,2.82-2,9.4,9.4,0,0,1,3.53-.8,7.34,7.34,0,0,1,6,2.21,9.62,9.62,0,0,1,2.11,6.6v18.54a.51.51,0,0,0,.15.36.6.6,0,0,0,.37.14l4.64-.22a.49.49,0,0,0,.47-.49V549.91A15.82,15.82,0,0,0,70.36,544.62Z"/><path class="cls-2" d="M101.73,540.89A13.58,13.58,0,0,0,97,537.34a14.25,14.25,0,0,0-6.37-1.19,14.86,14.86,0,0,0-6.21,1.49,15.68,15.68,0,0,0-4.89,3.77,17.41,17.41,0,0,0-3.19,5.52,19.38,19.38,0,0,0-1.15,6.66,18.13,18.13,0,0,0,1.27,6.88,15.74,15.74,0,0,0,3.46,5.26A14.6,14.6,0,0,0,85,569a15.59,15.59,0,0,0,5.51,1h.72a16.79,16.79,0,0,0,7.7-2,20.66,20.66,0,0,0,5.5-4.57.49.49,0,0,0,0-.7l-2.89-2.5a.51.51,0,0,0-.69,0,17,17,0,0,1-4.13,3.27,11.79,11.79,0,0,1-5.36,1.37,10.37,10.37,0,0,1-3.74-.52,9.49,9.49,0,0,1-3.22-1.81,9.6,9.6,0,0,1-2.35-3,11.4,11.4,0,0,1-1.1-3.72c9.54-.35,14.49-.52,24.2-.83a.5.5,0,0,0,.48-.44q.06-.59.06-1v-.7a21.4,21.4,0,0,0-1-6.59A15.33,15.33,0,0,0,101.73,540.89ZM80.92,551a13.34,13.34,0,0,1,1-3.52A12.65,12.65,0,0,1,84,544.13,9.5,9.5,0,0,1,87,541.94a8.69,8.69,0,0,1,3.54-.85h.32a8.63,8.63,0,0,1,3.54.69,8.23,8.23,0,0,1,2.84,2.08A10.59,10.59,0,0,1,99.08,547a13.57,13.57,0,0,1,.82,3.32C92.41,550.56,88.4,550.69,80.92,551Z"/><path class="cls-1" d="M154.69,544.35a17.45,17.45,0,0,0-4.64-2.64,47.09,47.09,0,0,0-6.15-1.89c-1.86-.44-3.47-.85-4.79-1.22a13.3,13.3,0,0,1-2.88-1.1,3.13,3.13,0,0,1-1.32-1.2,3.45,3.45,0,0,1-.36-1.64v-.12a2.94,2.94,0,0,1,1.26-2.41,6.67,6.67,0,0,1,4-1.09,14.59,14.59,0,0,1,5.59,1,32,32,0,0,1,5.82,3,.48.48,0,0,0,.67-.13l5.14-7.42a.49.49,0,0,0-.1-.67,26.72,26.72,0,0,0-7.76-4.13,28.09,28.09,0,0,0-9.25-1.35,20.65,20.65,0,0,0-6.51,1.08,15,15,0,0,0-5.11,2.92,13.31,13.31,0,0,0-3.35,4.46,13.63,13.63,0,0,0-1.19,5.75v.13a13.2,13.2,0,0,0,1.11,5.74,10.4,10.4,0,0,0,3.14,3.84,17.32,17.32,0,0,0,4.84,2.47,55,55,0,0,0,6.24,1.71c1.83.4,3.36.81,4.55,1.2a13.15,13.15,0,0,1,2.67,1.16,3,3,0,0,1,1.17,1.12,3.29,3.29,0,0,1,.3,1.45v.13a3.1,3.1,0,0,1-1.48,2.71,8.51,8.51,0,0,1-4.53,1.15,16.39,16.39,0,0,1-6.89-1.22,27.94,27.94,0,0,1-6.21-3.71.5.5,0,0,0-.69.08l-5.85,7.13a.5.5,0,0,0,.06.69,26,26,0,0,0,9.17,5.19,30.21,30.21,0,0,0,9.32,1.47h.93a24,24,0,0,0,6.81-1.14A16.59,16.59,0,0,0,153.8,564a13,13,0,0,0,3.52-4.56,14.26,14.26,0,0,0,1.26-6.07v-.13a12.52,12.52,0,0,0-1-5.17A10.33,10.33,0,0,0,154.69,544.35Z"/><path class="cls-2" d="M190.47,538.45a14.92,14.92,0,0,0-5-3.12,15.16,15.16,0,0,0-5.65-1,13.55,13.55,0,0,0-4.1.64,14.27,14.27,0,0,0-3.34,1.58,14.5,14.5,0,0,0-2.72,2.28c-.45.48-.88,1-1.29,1.49v-4.67a.47.47,0,0,0-.15-.35.57.57,0,0,0-.35-.14l-4.65.08a.48.48,0,0,0-.48.49v40.07a.49.49,0,0,0,.15.36.48.48,0,0,0,.34.14h0l4.64-.13a.5.5,0,0,0,.48-.5V561.8c.39.46.81.91,1.25,1.34a13.51,13.51,0,0,0,6.1,3.47,14.63,14.63,0,0,0,4.12.45,15.24,15.24,0,0,0,5.71-1.25,15.74,15.74,0,0,0,4.92-3.31,16.38,16.38,0,0,0,3.46-5.19,17.43,17.43,0,0,0,1.3-6.85v-.12A16.93,16.93,0,0,0,194,543.5,15.35,15.35,0,0,0,190.47,538.45Zm-.95,12v.12a13,13,0,0,1-.84,4.77,11.1,11.1,0,0,1-2.25,3.56,10,10,0,0,1-3.34,2.25A11.27,11.27,0,0,1,179,562a10.17,10.17,0,0,1-4-.73,11,11,0,0,1-3.46-2.21,10.29,10.29,0,0,1-2.42-3.5,11.52,11.52,0,0,1-.9-4.63v-.12a11.44,11.44,0,0,1,3.33-8.2,11.54,11.54,0,0,1,3.47-2.38,10.33,10.33,0,0,1,4-.88h.18a10.43,10.43,0,0,1,3.86.73,9.89,9.89,0,0,1,3.33,2.19,10.4,10.4,0,0,1,2.28,3.5A12.59,12.59,0,0,1,189.52,550.48Z"/><path class="cls-2" d="M212.1,534.09a24.73,24.73,0,0,0-6.23.8,34.44,34.44,0,0,0-5.33,2,.5.5,0,0,0-.25.62l1.39,3.7a.49.49,0,0,0,.67.28,26.66,26.66,0,0,1,4.36-1.61,19.54,19.54,0,0,1,4.91-.63,9.57,9.57,0,0,1,6.5,1.88,7,7,0,0,1,2.24,5.66v.29c-1.23-.3-2.49-.55-3.75-.74a34.6,34.6,0,0,0-5.3-.29,22.15,22.15,0,0,0-5.53.73,14.24,14.24,0,0,0-4.38,2,9.26,9.26,0,0,0-2.9,3.3,9.84,9.84,0,0,0-1,4.55v.12a8.65,8.65,0,0,0,1.06,4.33,9.59,9.59,0,0,0,2.77,3.07,11.58,11.58,0,0,0,3.91,1.8,16.19,16.19,0,0,0,4.15.54h.27a14.46,14.46,0,0,0,7.09-1.72,16.61,16.61,0,0,0,3.63-2.77v3.19a.47.47,0,0,0,.15.35.59.59,0,0,0,.35.14l4.59-.06a.49.49,0,0,0,.49-.49V546.67c0-3.94-1.15-7-3.42-9.2S216.62,534,212.1,534.09Zm8.32,17.56v2.41a6.33,6.33,0,0,1-.75,3.06,7.82,7.82,0,0,1-2.1,2.43,10.33,10.33,0,0,1-3.13,1.63,13.36,13.36,0,0,1-3.88.61,10.15,10.15,0,0,1-2.84-.34,7.66,7.66,0,0,1-2.35-1.06,5,5,0,0,1-1.56-1.7,4.57,4.57,0,0,1-.57-2.28v-.12a4.71,4.71,0,0,1,2.17-4,11.35,11.35,0,0,1,6.43-1.66h.49a26.72,26.72,0,0,1,4.53.34C218.16,551.15,219.36,551.39,220.42,551.65Z"/><path class="cls-2" d="M248.44,534.28l-9.4.06v-8.6a.51.51,0,0,0-.15-.35.5.5,0,0,0-.35-.14h0l-4.65,0a.51.51,0,0,0-.49.5v8.61l-3.86,0a.51.51,0,0,0-.49.5v4a.53.53,0,0,0,.15.35.4.4,0,0,0,.35.14l3.85,0V557a10.91,10.91,0,0,0,.7,4.08,7.15,7.15,0,0,0,2,2.82,7.61,7.61,0,0,0,3,1.56,13.08,13.08,0,0,0,3.49.45c.05,0,.14,0,.14,0a13.73,13.73,0,0,0,3.16-.36,11.09,11.09,0,0,0,2.69-1,.48.48,0,0,0,.26-.43v-3.84a.5.5,0,0,0-.23-.42.49.49,0,0,0-.47,0,10.6,10.6,0,0,1-2.17.75,10.44,10.44,0,0,1-2.16.23,5.54,5.54,0,0,1-3.5-1c-.83-.63-1.25-1.8-1.25-3.49V539.29l9.41-.06a.5.5,0,0,0,.49-.5v-4a.53.53,0,0,0-.15-.35A.61.61,0,0,0,248.44,534.28Z"/><path class="cls-2" d="M258.71,534.23h0l-4.65,0a.5.5,0,0,0-.49.5v30.08a.49.49,0,0,0,.15.35.47.47,0,0,0,.35.15h0l4.65,0a.49.49,0,0,0,.49-.5V534.73a.47.47,0,0,0-.15-.35A.49.49,0,0,0,258.71,534.23Z"/><path class="cls-2" d="M260.23,523.89l-5.08,0a.47.47,0,0,0-.47.47v4.73a.44.44,0,0,0,.14.33.47.47,0,0,0,.33.14h0l5.08,0a.47.47,0,0,0,.47-.47v-4.73a.47.47,0,0,0-.14-.33A.59.59,0,0,0,260.23,523.89Z"/><path class="cls-2" d="M278.29,533.72h0a24.36,24.36,0,0,0-6.22.73,35.16,35.16,0,0,0-5.33,1.93.49.49,0,0,0-.26.62l1.39,3.69a.51.51,0,0,0,.28.28.48.48,0,0,0,.39,0,26.37,26.37,0,0,1,4.36-1.55,19.59,19.59,0,0,1,4.91-.57h0a9.74,9.74,0,0,1,6.47,1.92,7,7,0,0,1,2.25,5.66v.28a37.79,37.79,0,0,0-3.75-.77,37,37,0,0,0-5.3-.35,21.78,21.78,0,0,0-5.53.66,14.05,14.05,0,0,0-4.38,2,9,9,0,0,0-2.9,3.24,9.56,9.56,0,0,0-1,4.51v.11a8.51,8.51,0,0,0,1.07,4.31,9.69,9.69,0,0,0,2.76,3.08,11.89,11.89,0,0,0,3.9,1.84,16.75,16.75,0,0,0,4.38.59h0a14.41,14.41,0,0,0,7.09-1.62,16.58,16.58,0,0,0,3.65-2.71v3.18a.49.49,0,0,0,.49.49h4.59a.49.49,0,0,0,.35-.15.5.5,0,0,0,.14-.35V546.36c0-3.92-1.15-7-3.41-9.19S282.82,533.72,278.29,533.72Zm8.3,17.54v2.4a6.22,6.22,0,0,1-.76,3,7.42,7.42,0,0,1-2.09,2.39,10.22,10.22,0,0,1-3.13,1.57,13,13,0,0,1-3.88.56,9.56,9.56,0,0,1-2.84-.38,7.69,7.69,0,0,1-2.35-1.08A5,5,0,0,1,270,558a4.53,4.53,0,0,1-.57-2.27v-.11a4.58,4.58,0,0,1,2.17-4,11.11,11.11,0,0,1,6.42-1.58h.07a28.12,28.12,0,0,1,5,.39C284.32,550.74,285.52,551,286.59,551.26Z"/><path class="cls-2" d="M303.5,521.81h-4.65a.48.48,0,0,0-.49.49v42.43a.49.49,0,0,0,.49.5h4.65a.48.48,0,0,0,.49-.49V522.31A.51.51,0,0,0,303.5,521.81Z"/><path class="cls-1" d="M357.92,525.48a16.11,16.11,0,0,0-5.56-3.22,22.86,22.86,0,0,0-7.39-1.17L326.59,521h0a.47.47,0,0,0-.35.15.45.45,0,0,0-.15.35v43.38a.49.49,0,0,0,.49.5l9.9.09h0a.5.5,0,0,0,.35-.14A.51.51,0,0,0,337,565V552.44l7,.07a26.29,26.29,0,0,0,7.23-.9,17.54,17.54,0,0,0,6-2.91,14.19,14.19,0,0,0,4-4.92,15.37,15.37,0,0,0,1.46-6.87v-.13a16,16,0,0,0-1.23-6.34A14,14,0,0,0,357.92,525.48ZM344.33,543,337,543v-12.3l7.15.05a8.91,8.91,0,0,1,5.57,1.62,5.37,5.37,0,0,1,2,4.54V537a5.53,5.53,0,0,1-1.9,4.31A7.75,7.75,0,0,1,344.33,543Z"/><path class="cls-2" d="M377.87,534.27a25.13,25.13,0,0,0-6.23.66,33.8,33.8,0,0,0-5.33,1.87.5.5,0,0,0-.26.62l1.39,3.73a.5.5,0,0,0,.27.28.44.44,0,0,0,.39,0,26.46,26.46,0,0,1,4.36-1.5,18.82,18.82,0,0,1,4.91-.5,9.82,9.82,0,0,1,6.51,2,7.27,7.27,0,0,1,2.24,5.77v.28c-1.22-.34-2.48-.62-3.73-.84a33.3,33.3,0,0,0-5.3-.44,22.25,22.25,0,0,0-5.53.58,13.69,13.69,0,0,0-4.39,1.89,8.83,8.83,0,0,0-2.9,3.21,9.6,9.6,0,0,0-1,4.52v.12a8.78,8.78,0,0,0,1.06,4.35,10.18,10.18,0,0,0,2.76,3.15A12.17,12.17,0,0,0,371,566a16.76,16.76,0,0,0,4.42.69h.4a13.85,13.85,0,0,0,6.7-1.49,16,16,0,0,0,3.64-2.67v3.24a.49.49,0,0,0,.49.49l4.58.1a.47.47,0,0,0,.36-.14.51.51,0,0,0,.15-.35V547.25c0-4-1.15-7.11-3.41-9.35S382.41,534.33,377.87,534.27ZM376.34,562a10.54,10.54,0,0,1-2.84-.44,8,8,0,0,1-2.36-1.14,5.19,5.19,0,0,1-1.57-1.76,4.67,4.67,0,0,1-.57-2.3v-.12a4.54,4.54,0,0,1,2.16-4,10.75,10.75,0,0,1,6.09-1.48h.33a28.19,28.19,0,0,1,5,.49c1.3.26,2.5.54,3.57.83v2.44a6.24,6.24,0,0,1-.75,3,7.27,7.27,0,0,1-2.09,2.37,9.77,9.77,0,0,1-3.12,1.53A12.79,12.79,0,0,1,376.34,562Z"/><path class="cls-2" d="M415.43,534.77a13.52,13.52,0,0,0-4.33.49,12.46,12.46,0,0,0-3.7,1.75,14.16,14.16,0,0,0-3,2.79,18,18,0,0,0-1.24,1.76v-6a.48.48,0,0,0-.48-.49L398,535a.65.65,0,0,0-.35.15.47.47,0,0,0-.15.35V566a.5.5,0,0,0,.48.5l4.65.11h0a.52.52,0,0,0,.35-.14.52.52,0,0,0,.14-.36V554a17,17,0,0,1,.94-5.87,11.88,11.88,0,0,1,2.55-4.18,10.3,10.3,0,0,1,3.77-2.47,12.17,12.17,0,0,1,4.61-.76h.37a.52.52,0,0,0,.35-.14.47.47,0,0,0,.15-.35v-4.92A.5.5,0,0,0,415.43,534.77Z"/><path class="cls-2" d="M435.63,535.69l-9.41-.18v-8.8a.53.53,0,0,0-.53-.49l-4.6-.07a.45.45,0,0,0-.36.14.5.5,0,0,0-.14.35v8.76l-3.85-.07a.53.53,0,0,0-.35.14.49.49,0,0,0-.15.36v4a.49.49,0,0,0,.48.49l3.87.08v18a11.51,11.51,0,0,0,.69,4.18,7.77,7.77,0,0,0,2,2.93,8.12,8.12,0,0,0,3,1.71,13.27,13.27,0,0,0,3.64.6h.52a12.7,12.7,0,0,0,2.64-.26,10.13,10.13,0,0,0,2.69-.95.49.49,0,0,0,.27-.44v-3.93a.5.5,0,0,0-.69-.46,9.73,9.73,0,0,1-2.16.69,10,10,0,0,1-2.16.15,5.77,5.77,0,0,1-3.51-1.12,4.5,4.5,0,0,1-1.26-3.63V540.54l9.39.2a.51.51,0,0,0,.36-.14.53.53,0,0,0,.15-.36v-4A.51.51,0,0,0,435.63,535.69Z"/><path class="cls-2" d="M469.09,536.45l-4.91-.12h0a.5.5,0,0,0-.46.31c-3.85,9.92-5.85,15.05-9.57,24.54q-5.42-12.52-10.87-25a.51.51,0,0,0-.45-.3l-5.13-.11a.56.56,0,0,0-.42.23.49.49,0,0,0,0,.47q7.08,15.51,14.1,31a11.43,11.43,0,0,1-2.62,4.08,4.62,4.62,0,0,1-3.22,1,10.92,10.92,0,0,1-2.51-.35,9.55,9.55,0,0,1-2.16-.9.47.47,0,0,0-.4,0,.46.46,0,0,0-.29.27l-1.57,3.59a.49.49,0,0,0,.22.63,16.72,16.72,0,0,0,3.24,1.32,15.67,15.67,0,0,0,3.61.53h.46a9.27,9.27,0,0,0,5.81-1.87c1.69-1.31,3.23-3.6,4.59-6.83Q463,553,469.57,537.13a.51.51,0,0,0-.06-.46A.54.54,0,0,0,469.09,536.45Z"/><path class="cls-1" d="M510.27,546.45c6-8.76,9-13.09,14.84-21.79a.52.52,0,0,0,0-.51.47.47,0,0,0-.42-.26l-11.24-.28a.42.42,0,0,0-.43.23c-3.65,5.65-5.55,8.57-9.08,14-3.5-5.62-5.39-8.63-9-14.4a.48.48,0,0,0-.4-.23L483,522.93a.59.59,0,0,0-.45.26.49.49,0,0,0,0,.51c6.1,9.17,9.06,13.63,14.85,22.47-6,8.7-9.09,13.13-15.48,22.26a.52.52,0,0,0,0,.51.49.49,0,0,0,.42.27l11.24.47a.53.53,0,0,0,.43-.21c3.92-5.86,5.94-8.9,9.73-14.61,3.76,6,5.78,9.23,9.67,15.51a.47.47,0,0,0,.4.23l11.55.57h0a.5.5,0,0,0,.42-.25.49.49,0,0,0,0-.51C520.66,562.44,515.45,554.38,510.27,546.45Z"/><path class="cls-1" d="M558.12,555.8a14.8,14.8,0,0,0,6.61-4.93,15.41,15.41,0,0,0,2.77-9.56v-.14c0-4.62-1.34-8.42-4-11.29-3.12-3.37-7.64-5.17-13.45-5.33L529.53,524a.45.45,0,0,0-.36.14.51.51,0,0,0-.15.35v46.38a.5.5,0,0,0,.47.5l9.89.51a.53.53,0,0,0,.36-.13.52.52,0,0,0,.16-.36V557l7,.31c3.76,6,5.68,9.14,9.49,15.31a.48.48,0,0,0,.39.23l11.55.67h0a.48.48,0,0,0,.42-.24.47.47,0,0,0,0-.51C564.49,565.9,562.3,562.4,558.12,555.8ZM539.9,534.53l9.31.3a8.61,8.61,0,0,1,5.41,1.76,5.93,5.93,0,0,1,1.88,4.74v.13a5.55,5.55,0,0,1-1.79,4.4,7.35,7.35,0,0,1-5.27,1.46l-9.54-.38Z"/><path class="cls-2" d="M421.68,240.12c9.69-3.59,20.88-7.52,25.15-8.21,8.15-1.31,16.95,10.08,22,8.81,14.71-3.72,10.54-39.5-3.73-41.32-3.74-.47-9.05,10.47-17.8,10.31a28.85,28.85,0,0,1-5.3-.53C429,221.21,421.68,240.12,421.68,240.12Z"/><path class="cls-1" d="M446.36,105.71a331.08,331.08,0,0,0-33.11,27.81c-8.18,7.78-27.68,28.51-29.53,30.54-5.56-9.91-9.57-18.87-17.65-26.84-2.94-2.9-3.27-3.83,1.07-5.85a75.44,75.44,0,0,0,16-9.72c20-15.91,34-39.91,28.55-71.17-7.83-45-58.52-61.48-91.54-42.1-13.93,8.18-14,24.82,1.31,34.32,7.22,4.5,14.95,7.09,22.59,10.75a37.44,37.44,0,0,1,15,12.72c6.54,9.49,8.27,20,2.81,30.43-5.78,11-13.87,21.14-26.1,20.9-14-.26-30.45-.24-43.38,5.74-8.61,4-16.88,10.27-26,12.32-10,2.24-19.38-1.09-24.23-10.9-2.92-5.9-4.9-12.45-8.42-18-10.09-15.86-33.18-20.65-46-13.25-5.45,3.34-5.74,1.34-2,7.42a34.14,34.14,0,0,1,3.6,9.52c.58,2.82.71,9.16-1.66,9.55-2.72.45-2.92-3.78-3.82-6.69a56.29,56.29,0,0,0-2.27-5.64c-3.29-7.51-8.08-11.81-16.54-10.56-6.79,1-13.11-1.87-19.12-5.12-6.38-3.45-11.76-8.28-16.89-13.65-6.13-6.42-12.54-12.83-21.69-14C98,63.12,93.58,67.72,94.25,77.84c.89,13.53,10.12,28.72,23.29,30.7a68.78,68.78,0,0,1,39.23,20.89c2.27,2,4.49,2.58,7,3.26,4.17,1.13,9.94.66,13.5-2.28,1.79-1.47,4.49-3.38,6-.78,1.22,2.33-1.5,4.34-3.28,5.65-7.16,5.28-20,4.48-27.37-2.14-8.28-7.49-14.92-15.13-26.58-16.68-2.47-.33-4.16,1.75-5.31,4.19-.93,2.35.84,6.14,2.54,8.26,6.83,8.54,13,11.71,24.9,17.89,9.33,4.87,18.34,8.54,20.82,9.88,2.69,1.45,3.29,7.95,5.53,16.12,3.17,10.86,1.49,11-2.14,13.41a156.85,156.85,0,0,1-27.77,15c-14.67,6.53-19.93,5-27.77-3.29-3-3.74-6.76-3.66-10.19,1.64-5.21,9.38-7.75,21.89-1.09,31.93,3.3,4.88,6.08,5,9.74,2,6.82-5.72,11.58-5.54,24.36-2.4,17.67,4.34,30.78,6.11,58,8.41,14.76,1.24,50.49,26.29,111,25.71-2.19,4-4.32,8-6.35,12.15-8.5,17.19-18.86,44.6-21,62.76-1.93,16.26,11,27.34,40.43,8.67,24.13-16.85,43.74-38.25,62.55-60.29a614.8,614.8,0,0,0,58.92-80.9c13.26-21.94,27.33-43.52,36.21-67.42C496.33,94.46,483.81,80.31,446.36,105.71Zm-242.7,17.5c-4.43.41-6.28-3.26-6-7.12.22-3.52,2.18-6.06,5.26-6.39,3.48-.36,6.58,2.69,6.39,7.86A5.89,5.89,0,0,1,203.66,123.21Zm179.69,141.9c-16.65,21.55-35.93,40.52-57,57.89C304.7,340,294.24,329,318,280.39q4.56-8.76,9.57-17.24c9.94-1.21,54.95-10.59,69.18-16C397.6,246.3,388.17,258.87,383.35,265.11Zm70.07-105.43a499.07,499.07,0,0,1-25.87,44.11c-4.82-1.32-15.45-6.88-24-12.62a46.36,46.36,0,0,1-12.31-13.06c12.65-14.19,25.85-27.84,40.56-40.13C461.06,112.56,472.15,123.35,453.42,159.68Z"/></svg>