<svg id="LOGO" xmlns="http://www.w3.org/2000/svg" viewBox="0 0 205.97 264.3"><defs><style>.cls-1{fill:#4c0080;}</style></defs><path class="cls-1" d="M26.37,262.63c-16.12,5.18-27-2.16-26.34-15.19,1.05-19.26,8.48-38.93,20.12-62.81,21.13-43.88,52.14-82.15,85.91-118.88,17.84-19.41,36.65-37.89,58.3-53.83A65.27,65.27,0,0,1,188.88.43c7.84-1.87,15.82,2.53,16.76,9.76,1.57,12-2.74,23.59-6.79,35-8.31,23.52-22.1,45-35,66.72a596.57,596.57,0,0,1-58.13,80.6C87,214.61,67.43,236.07,43,253.28A75.44,75.44,0,0,1,26.37,262.63Zm11.84-31.17c14.67-6.52,50.42-39.14,66.89-60.65,25.7-33.55,50.57-66.89,67.76-104.68,3.75-8.23,7.54-17.91,8.11-28.8.36-6.81-4.86-9.09-11.43-5.83a102.23,102.23,0,0,0-22,14.6A420.53,420.53,0,0,0,97.13,96.49c-24,28.07-45.29,57.6-61.63,89.7-4.62,9.78-10.42,24.33-10.17,37.14C25.52,230.3,31,233.9,38.21,231.46Z"/></svg>